<svg id="Layer_1"  xmlns="http://www.w3.org/2000/svg" viewBox="0 0 601.95 277.14"><defs><style>.cls-1{fill:#1e3564;}.cls-2{fill:#e7004c;}.cls-3{fill:#1d3564;}.cls-4{fill:none;stroke:#e7004c;stroke-linecap:round;stroke-miterlimit:10;stroke-width:2.07px;}</style></defs><title>Data Viz_v5_1_Outlinedv2</title><path class="cls-1" d="M15.49,90.67H14V86.41h-4v4.26H8.57V80.92h1.48v4.16h4V80.92h1.48Z"/><path class="cls-2" d="M427.9,18.54h-2.38V16.16h2.38ZM427.84,32h-2.26V20.75h2.26Z"/><path class="cls-2" d="M438.79,21.68l-1.7,1.7a2.08,2.08,0,0,0-1.68-.75,2.3,2.3,0,0,0-2.23,2.51V32h-2.25V20.75h2.2V22a3.73,3.73,0,0,1,3-1.35A3.48,3.48,0,0,1,438.79,21.68Z"/><path class="cls-2" d="M447.62,21.94c1.06,1.11,1.32,2.52,1.32,4.4s-.26,3.31-1.32,4.41a4.54,4.54,0,0,1-3.36,1.33,4.48,4.48,0,0,1-3.33-1.33c-1.06-1.1-1.33-2.51-1.33-4.41s.27-3.29,1.33-4.4a4.48,4.48,0,0,1,3.33-1.32A4.53,4.53,0,0,1,447.62,21.94Zm-5,1.33a4.29,4.29,0,0,0-.77,3.07,4.32,4.32,0,0,0,.77,3.07,2.24,2.24,0,0,0,1.63.66,2.29,2.29,0,0,0,1.66-.66,4.37,4.37,0,0,0,.77-3.07,4.34,4.34,0,0,0-.77-3.07,2.28,2.28,0,0,0-1.66-.64A2.22,2.22,0,0,0,442.63,23.27Z"/><path class="cls-2" d="M459.46,21.63a4.12,4.12,0,0,1,1.12,3.16V32h-2.25V25.12a2.17,2.17,0,0,0-2.25-2.49,2.23,2.23,0,0,0-2.32,2.49V32h-2.25V20.75h2.2v1.13a4,4,0,0,1,3-1.26A3.91,3.91,0,0,1,459.46,21.63Z"/><path class="cls-2" d="M469.7,26.87h-6.45v-2.1h6.45Z"/><path class="cls-2" d="M474.74,21.88a3.45,3.45,0,0,1,2.93-1.26,3.81,3.81,0,0,1,2.72,1c1.08,1.11,1.26,2.9,1.26,4.73s-.18,3.64-1.26,4.74a3.87,3.87,0,0,1-2.74,1,3.47,3.47,0,0,1-3-1.33V32h-2.21V16.22h2.26Zm0,4.46c0,2,.28,3.73,2.34,3.73s2.31-1.75,2.31-3.73-.28-3.71-2.31-3.71S474.74,24.35,474.74,26.34Z"/><path class="cls-2" d="M486.53,18.54h-2.39V16.16h2.39ZM486.46,32h-2.25V20.75h2.25Z"/><path class="cls-2" d="M497.5,21.63a4.12,4.12,0,0,1,1.13,3.16V32h-2.26V25.12a2.17,2.17,0,0,0-2.25-2.49,2.23,2.23,0,0,0-2.32,2.49V32h-2.25V20.75h2.21v1.13a4,4,0,0,1,3-1.26A3.87,3.87,0,0,1,497.5,21.63Z"/><path class="cls-2" d="M510.24,32H508v-1.2a3.46,3.46,0,0,1-3,1.33,3.79,3.79,0,0,1-2.73-1c-1.09-1.1-1.26-2.89-1.26-4.72s.17-3.64,1.26-4.75a3.74,3.74,0,0,1,2.71-1A3.44,3.44,0,0,1,508,21.9V16.22h2.25Zm-6.91-5.59c0,2,.29,3.71,2.32,3.71S508,28.35,508,26.36s-.29-3.73-2.34-3.73S503.33,24.37,503.33,26.36Z"/><path class="cls-2" d="M515.65,18.54h-2.38V16.16h2.38ZM515.59,32h-2.26V20.75h2.26Z"/><path class="cls-2" d="M526.63,21.63a4.12,4.12,0,0,1,1.12,3.16V32H525.5V25.12a2.17,2.17,0,0,0-2.25-2.49,2.23,2.23,0,0,0-2.32,2.49V32h-2.25V20.75h2.2v1.13a4,4,0,0,1,3-1.26A3.91,3.91,0,0,1,526.63,21.63Z"/><path class="cls-2" d="M537.09,21.94V20.75h2.19V31.88a4.49,4.49,0,0,1-4.79,4.72,5.19,5.19,0,0,1-4-1.47L532,33.69a3.14,3.14,0,0,0,2.43,1c1.9,0,2.62-1.34,2.62-2.84V30.4a3.44,3.44,0,0,1-2.89,1.28,3.75,3.75,0,0,1-2.67-1c-1.08-1.09-1.26-2.65-1.26-4.55s.18-3.47,1.26-4.55a3.75,3.75,0,0,1,2.69-1A3.44,3.44,0,0,1,537.09,21.94Zm-4.64,4.2c0,1.76.27,3.51,2.3,3.51S537,27.9,537,26.14s-.24-3.51-2.27-3.51S532.45,24.37,532.45,26.14Z"/><path class="cls-2" d="M434.72,45.37l-1.42,1.44a4.2,4.2,0,0,0-2.76-.82c-1.37,0-2,.58-2,1.44s.44,1.17,1.55,1.28l1.57.13c2.31.2,3.53,1.21,3.53,3.18,0,2.34-2,3.55-4.66,3.55A6.16,6.16,0,0,1,425.8,54l1.48-1.48a4.33,4.33,0,0,0,3.22,1.17c1.39,0,2.45-.48,2.45-1.54,0-.77-.42-1.22-1.5-1.33l-1.79-.15c-2.12-.2-3.31-1.13-3.31-3.09,0-2.21,1.88-3.43,4.22-3.43A6.13,6.13,0,0,1,434.72,45.37Z"/><path class="cls-2" d="M439.73,42h-2.38V39.65h2.38Zm-.07,13.4h-2.25V44.25h2.25Z"/><path class="cls-2" d="M451.39,55.44h-2.21V54.25a3.49,3.49,0,0,1-3,1.32,3.83,3.83,0,0,1-2.74-1c-1.08-1.1-1.26-2.89-1.26-4.72s.18-3.65,1.26-4.75a3.79,3.79,0,0,1,2.72-1,3.4,3.4,0,0,1,2.93,1.29V39.72h2.26Zm-6.91-5.58c0,2,.28,3.7,2.32,3.7s2.33-1.72,2.33-3.7-.28-3.74-2.33-3.74S444.48,47.87,444.48,49.86Z"/><path class="cls-2" d="M456.14,50.5c0,1.94,1,3.13,2.84,3.13a3.33,3.33,0,0,0,2.72-1.15l1.43,1.35a5.22,5.22,0,0,1-4.19,1.74c-2.8,0-5-1.48-5-5.74,0-3.64,1.87-5.72,4.74-5.72s4.75,2.17,4.75,5.44v1Zm4.72-3.1a2.45,2.45,0,0,0-4.44,0,3.49,3.49,0,0,0-.28,1.53h5A3.78,3.78,0,0,0,460.86,47.4Z"/><path class="cls-2" d="M473.78,45.18l-1.7,1.7a2.09,2.09,0,0,0-1.68-.76,2.31,2.31,0,0,0-2.23,2.52v6.8h-2.25V44.25h2.21v1.21a3.73,3.73,0,0,1,3-1.35A3.46,3.46,0,0,1,473.78,45.18Z"/><path class="cls-2" d="M482.61,45.44c1.06,1.1,1.33,2.52,1.33,4.39s-.27,3.32-1.33,4.42a4.53,4.53,0,0,1-3.36,1.32,4.48,4.48,0,0,1-3.33-1.32c-1.06-1.1-1.32-2.52-1.32-4.42s.26-3.29,1.32-4.39a4.48,4.48,0,0,1,3.33-1.33A4.54,4.54,0,0,1,482.61,45.44Zm-5,1.32a4.37,4.37,0,0,0-.77,3.07,4.34,4.34,0,0,0,.77,3.07,2.24,2.24,0,0,0,1.63.66,2.29,2.29,0,0,0,1.66-.66,4.34,4.34,0,0,0,.77-3.07,4.37,4.37,0,0,0-.77-3.07,2.28,2.28,0,0,0-1.66-.64A2.22,2.22,0,0,0,477.62,46.76Z"/><path class="cls-2" d="M494.4,45.11c1.08,1.1,1.26,2.89,1.26,4.72s-.18,3.65-1.26,4.75a3.77,3.77,0,0,1-2.71,1,3.41,3.41,0,0,1-2.94-1.28V60H486.5V44.25h2.2v1.19a3.47,3.47,0,0,1,3-1.33A3.84,3.84,0,0,1,494.4,45.11Zm-5.65,4.72c0,2,.29,3.73,2.34,3.73s2.32-1.74,2.32-3.73-.29-3.71-2.32-3.71S488.75,47.85,488.75,49.83Z"/><path class="cls-2" d="M500.47,45.37a4.15,4.15,0,0,1,5.7-.24,4.12,4.12,0,0,1,1.13,3.16v7.15h-2.25V48.62a2.18,2.18,0,0,0-2.26-2.5,2.24,2.24,0,0,0-2.32,2.5v6.82h-2.25V39.72h2.25Z"/><path class="cls-2" d="M517.76,45.44c1.06,1.1,1.33,2.52,1.33,4.39s-.27,3.32-1.33,4.42a4.9,4.9,0,0,1-6.69,0c-1.06-1.1-1.32-2.52-1.32-4.42s.26-3.29,1.32-4.39a4.87,4.87,0,0,1,6.69,0Zm-5,1.32a4.37,4.37,0,0,0-.77,3.07,4.34,4.34,0,0,0,.77,3.07,2.25,2.25,0,0,0,1.64.66,2.29,2.29,0,0,0,1.65-.66,4.29,4.29,0,0,0,.78-3.07,4.32,4.32,0,0,0-.78-3.07,2.27,2.27,0,0,0-1.65-.64A2.23,2.23,0,0,0,512.77,46.76Z"/><path class="cls-2" d="M529.51,45.18l-1.7,1.7a2.09,2.09,0,0,0-1.68-.76,2.31,2.31,0,0,0-2.23,2.52v6.8h-2.25V44.25h2.21v1.21a3.73,3.73,0,0,1,3-1.35A3.44,3.44,0,0,1,529.51,45.18Z"/><path class="cls-2" d="M532.51,50.5c0,1.94,1,3.13,2.85,3.13a3.34,3.34,0,0,0,2.72-1.15l1.43,1.35a5.23,5.23,0,0,1-4.19,1.74c-2.81,0-5-1.48-5-5.74,0-3.64,1.88-5.72,4.75-5.72s4.75,2.17,4.75,5.44v1Zm4.73-3.1a2.45,2.45,0,0,0-4.44,0,3.63,3.63,0,0,0-.29,1.53h5A4,4,0,0,0,537.24,47.4Z"/><path class="cls-1" d="M167.76,23,166,24.68a2.91,2.91,0,0,0-2.39-1.18,2.81,2.81,0,0,0-2.31,1.1,4.64,4.64,0,0,0-.74,3,4.7,4.7,0,0,0,.74,3.05,2.79,2.79,0,0,0,2.31,1.11A2.91,2.91,0,0,0,166,30.61l1.72,1.65A5.16,5.16,0,0,1,163.65,34c-2.81,0-5.56-1.72-5.56-6.4s2.75-6.37,5.56-6.37A5.13,5.13,0,0,1,167.76,23Z"/><path class="cls-1" d="M172,28.37c0,2.16,1.11,3.49,3.18,3.49a3.7,3.7,0,0,0,3-1.28l1.6,1.51A5.83,5.83,0,0,1,175.1,34c-3.13,0-5.61-1.65-5.61-6.4,0-4.06,2.09-6.37,5.29-6.37,3.35,0,5.29,2.41,5.29,6v1.06Zm5.27-3.45a2.74,2.74,0,0,0-5,0,4.09,4.09,0,0,0-.32,1.7h5.61A4.08,4.08,0,0,0,177.24,24.92Z"/><path class="cls-1" d="M191.69,22.36c1.21,1.23,1.4,3.23,1.4,5.27s-.19,4.06-1.4,5.29a4.22,4.22,0,0,1-3,1.11,3.8,3.8,0,0,1-3.27-1.43v6.33h-2.51V21.4h2.46v1.33a3.87,3.87,0,0,1,3.3-1.47A4.26,4.26,0,0,1,191.69,22.36Zm-6.3,5.27c0,2.22.32,4.16,2.61,4.16s2.58-1.94,2.58-4.16-.32-4.13-2.58-4.13S185.39,25.42,185.39,27.63Z"/><path class="cls-1" d="M198.46,22.66a4.63,4.63,0,0,1,6.35-.27,4.58,4.58,0,0,1,1.26,3.52v8h-2.51v-7.6c0-2-1.11-2.78-2.51-2.78a2.48,2.48,0,0,0-2.59,2.78v7.6H196V16.36h2.51Z"/><path class="cls-1" d="M218.57,25.54v8.34h-2.46V32.75A4.1,4.1,0,0,1,212.79,34a4.42,4.42,0,0,1-3.35-1.13,3.84,3.84,0,0,1-1-2.68c0-2.1,1.45-3.6,4.33-3.6h3.27v-.88c0-1.6-.76-2.34-2.73-2.34a3,3,0,0,0-2.73,1.23L209,23.08c1.16-1.38,2.37-1.82,4.46-1.82C216.87,21.26,218.57,22.73,218.57,25.54Zm-5.39,2.83c-1.52,0-2.29.64-2.29,1.8s.72,1.77,2.37,1.77a3,3,0,0,0,2.26-.72,2.42,2.42,0,0,0,.54-1.84v-1Z"/><path class="cls-1" d="M224.34,29.87c0,1.33.34,1.77,1.35,1.77h1.11v2.24h-1.38c-2.41,0-3.6-1.33-3.6-3.86V16.36h2.52Z"/><path class="cls-1" d="M237.36,22.73c1.18,1.23,1.47,2.81,1.47,4.9s-.29,3.69-1.47,4.92A5.07,5.07,0,0,1,233.61,34a5,5,0,0,1-3.71-1.48c-1.18-1.23-1.48-2.8-1.48-4.92s.3-3.67,1.48-4.9a5,5,0,0,1,3.71-1.47A5.11,5.11,0,0,1,237.36,22.73Zm-5.57,1.48c-.76.76-.86,2.07-.86,3.42s.1,2.66.86,3.42a2.51,2.51,0,0,0,1.82.74,2.56,2.56,0,0,0,1.85-.74c.76-.76.86-2.07.86-3.42s-.1-2.66-.86-3.42a2.54,2.54,0,0,0-1.85-.71A2.49,2.49,0,0,0,231.79,24.21Z"/><path class="cls-1" d="M250.43,22.66l-1.58,1.6a4.65,4.65,0,0,0-3.07-.91c-1.53,0-2.27.64-2.27,1.6s.49,1.3,1.73,1.43l1.74.14c2.59.22,3.94,1.36,3.94,3.55,0,2.61-2.21,4-5.19,4a6.89,6.89,0,0,1-5.25-1.8l1.65-1.65a4.84,4.84,0,0,0,3.6,1.31c1.55,0,2.73-.54,2.73-1.72,0-.87-.47-1.36-1.67-1.48l-2-.17c-2.36-.22-3.69-1.26-3.69-3.45,0-2.46,2.09-3.81,4.7-3.81A6.8,6.8,0,0,1,250.43,22.66Z"/><path class="cls-1" d="M262.24,22.36c1.21,1.23,1.41,3.23,1.41,5.27s-.2,4.06-1.41,5.29a4.19,4.19,0,0,1-3,1.11,3.82,3.82,0,0,1-3.28-1.43v6.33h-2.51V21.4h2.46v1.33a3.87,3.87,0,0,1,3.3-1.47A4.26,4.26,0,0,1,262.24,22.36Zm-6.3,5.27c0,2.22.32,4.16,2.61,4.16s2.59-1.94,2.59-4.16-.32-4.13-2.59-4.13S255.94,25.42,255.94,27.63Z"/><path class="cls-1" d="M274.85,22.73c1.18,1.23,1.48,2.81,1.48,4.9s-.3,3.69-1.48,4.92a5.44,5.44,0,0,1-7.46,0c-1.18-1.23-1.47-2.8-1.47-4.92s.29-3.67,1.47-4.9a5.47,5.47,0,0,1,7.46,0Zm-5.56,1.48c-.77.76-.87,2.07-.87,3.42s.1,2.66.87,3.42a2.48,2.48,0,0,0,1.82.74,2.52,2.52,0,0,0,1.84-.74c.77-.76.87-2.07.87-3.42s-.1-2.66-.87-3.42a2.5,2.5,0,0,0-1.84-.71A2.46,2.46,0,0,0,269.29,24.21Z"/><path class="cls-1" d="M288,22.44l-1.9,1.89a2.33,2.33,0,0,0-1.87-.83,2.57,2.57,0,0,0-2.49,2.8v7.58h-2.51V21.4h2.46v1.36a4.14,4.14,0,0,1,3.33-1.5A3.89,3.89,0,0,1,288,22.44Z"/><path class="cls-1" d="M292,18.94h-2.65V16.28H292ZM292,33.88h-2.51V21.4H292Z"/><path class="cls-1" d="M304.27,22.39a4.58,4.58,0,0,1,1.25,3.52v8H303v-7.6c0-2-1.11-2.78-2.51-2.78a2.48,2.48,0,0,0-2.58,2.78v7.6h-2.51V21.4h2.46v1.26a4.44,4.44,0,0,1,3.32-1.4A4.31,4.31,0,0,1,304.27,22.39Z"/><path class="cls-2" d="M394.74,249.92,393,251.59a2.91,2.91,0,0,0-2.39-1.18,2.82,2.82,0,0,0-2.31,1.11,4.62,4.62,0,0,0-.74,3,4.7,4.7,0,0,0,.74,3.05,2.82,2.82,0,0,0,2.31,1.11,2.89,2.89,0,0,0,2.39-1.19l1.72,1.65a5.12,5.12,0,0,1-4.11,1.78c-2.8,0-5.56-1.73-5.56-6.4s2.76-6.38,5.56-6.38A5.1,5.1,0,0,1,394.74,249.92Z"/><path class="cls-2" d="M406.29,252.45v8.35h-2.46v-1.13a4.1,4.1,0,0,1-3.32,1.28,4.39,4.39,0,0,1-3.35-1.14,3.82,3.82,0,0,1-1-2.68c0-2.09,1.46-3.59,4.34-3.59h3.27v-.89c0-1.6-.76-2.34-2.73-2.34a3,3,0,0,0-2.73,1.23L396.69,250c1.16-1.38,2.36-1.82,4.46-1.82C404.59,248.17,406.29,249.65,406.29,252.45Zm-5.39,2.83c-1.53,0-2.29.65-2.29,1.8s.72,1.77,2.36,1.77a3,3,0,0,0,2.27-.71,2.43,2.43,0,0,0,.54-1.85v-1Z"/><path class="cls-2" d="M412.42,248.32h2.41v1.92h-2.41v7c0,.94.44,1.46,1.38,1.46h1v2.14h-1.5a3.23,3.23,0,0,1-3.42-3.47v-7.09h-1.43v-1.92h1.43v-3.57h2.51Z"/><path class="cls-2" d="M419.34,255.28c0,2.17,1.11,3.5,3.17,3.5a3.7,3.7,0,0,0,3-1.28l1.6,1.5a5.85,5.85,0,0,1-4.68,1.95c-3.12,0-5.61-1.65-5.61-6.4,0-4.06,2.1-6.38,5.3-6.38s5.29,2.41,5.29,6.06v1.05Zm5.27-3.44a2.73,2.73,0,0,0-4.95,0,3.74,3.74,0,0,0-.32,1.7H425A4.34,4.34,0,0,0,424.61,251.84Z"/><path class="cls-2" d="M439.33,249.92l-1.73,1.67a2.89,2.89,0,0,0-2.38-1.18,2.85,2.85,0,0,0-2.32,1.11,4.63,4.63,0,0,0-.73,3,4.71,4.71,0,0,0,.73,3.05,3,3,0,0,0,4.7-.08l1.73,1.65a5.13,5.13,0,0,1-4.11,1.78c-2.81,0-5.56-1.73-5.56-6.4s2.75-6.38,5.56-6.38A5.11,5.11,0,0,1,439.33,249.92Z"/><path class="cls-2" d="M444.2,249.57a4.63,4.63,0,0,1,6.35-.27,4.6,4.6,0,0,1,1.26,3.52v8H449.3v-7.61c0-1.94-1.11-2.78-2.51-2.78a2.48,2.48,0,0,0-2.59,2.78v7.61h-2.51V243.27h2.51Z"/><path class="cls-2" d="M463.48,249.65c1.18,1.23,1.47,2.8,1.47,4.9s-.29,3.69-1.47,4.92a5,5,0,0,1-3.74,1.48,5,5,0,0,1-3.72-1.48c-1.18-1.23-1.48-2.81-1.48-4.92s.3-3.67,1.48-4.9a5,5,0,0,1,3.72-1.48A5,5,0,0,1,463.48,249.65Zm-5.56,1.48c-.77.76-.87,2.06-.87,3.42s.1,2.65.87,3.42a2.52,2.52,0,0,0,1.82.74,2.56,2.56,0,0,0,1.84-.74c.77-.77.86-2.07.86-3.42s-.09-2.66-.86-3.42a2.51,2.51,0,0,0-1.84-.72A2.46,2.46,0,0,0,457.92,251.13Z"/><path class="cls-2" d="M470.25,256.79c0,1.33.34,1.77,1.35,1.77h1.11v2.24h-1.38c-2.41,0-3.59-1.33-3.59-3.87V243.27h2.51Z"/><path class="cls-2" d="M489,249.57l-1.57,1.61a4.7,4.7,0,0,0-3.08-.92c-1.53,0-2.27.64-2.27,1.6s.5,1.31,1.73,1.43l1.75.15c2.58.22,3.93,1.35,3.93,3.54,0,2.61-2.21,4-5.19,4a6.87,6.87,0,0,1-5.24-1.8l1.65-1.65a4.85,4.85,0,0,0,3.59,1.3c1.55,0,2.73-.54,2.73-1.72,0-.86-.47-1.35-1.67-1.48l-2-.17c-2.36-.22-3.69-1.25-3.69-3.44,0-2.46,2.1-3.82,4.7-3.82A6.85,6.85,0,0,1,489,249.57Z"/><path class="cls-2" d="M494.62,245.86H492V243.2h2.66Zm-.07,14.94H492V248.32h2.51Z"/><path class="cls-2" d="M507.62,260.8h-2.46v-1.33a3.88,3.88,0,0,1-3.3,1.48,4.27,4.27,0,0,1-3.05-1.11c-1.21-1.23-1.41-3.23-1.41-5.27s.2-4.06,1.41-5.29a4.19,4.19,0,0,1,3-1.11,3.82,3.82,0,0,1,3.28,1.43v-6.33h2.51Zm-7.71-6.23c0,2.22.32,4.14,2.59,4.14s2.61-1.92,2.61-4.14-.32-4.16-2.61-4.16S499.91,252.36,499.91,254.57Z"/><path class="cls-2" d="M512.91,255.28c0,2.17,1.11,3.5,3.18,3.5a3.7,3.7,0,0,0,3-1.28l1.6,1.5A5.85,5.85,0,0,1,516,261c-3.13,0-5.62-1.65-5.62-6.4,0-4.06,2.1-6.38,5.3-6.38s5.29,2.41,5.29,6.06v1.05Zm5.27-3.44a2.73,2.73,0,0,0-4.95,0,3.88,3.88,0,0,0-.32,1.7h5.61A4.34,4.34,0,0,0,518.18,251.84Z"/><path class="cls-2" d="M530.66,255.14h-7.19V252.8h7.19Z"/><path class="cls-2" d="M542.84,249.92l-1.72,1.67a2.9,2.9,0,0,0-2.39-1.18,2.83,2.83,0,0,0-2.31,1.11,4.62,4.62,0,0,0-.74,3,4.7,4.7,0,0,0,.74,3.05,2.83,2.83,0,0,0,2.31,1.11,2.88,2.88,0,0,0,2.39-1.19l1.72,1.65a5.12,5.12,0,0,1-4.11,1.78c-2.8,0-5.56-1.73-5.56-6.4s2.76-6.38,5.56-6.38A5.1,5.1,0,0,1,542.84,249.92Z"/><path class="cls-2" d="M547.72,249.57a4.29,4.29,0,0,1,3.27-1.4,4.35,4.35,0,0,1,3.08,1.13,4.6,4.6,0,0,1,1.26,3.52v8h-2.51v-7.61c0-1.94-1.11-2.78-2.51-2.78a2.48,2.48,0,0,0-2.59,2.78v7.61h-2.51V243.27h2.51Z"/><path class="cls-2" d="M567.83,252.45v8.35h-2.46v-1.13a4.1,4.1,0,0,1-3.32,1.28,4.39,4.39,0,0,1-3.35-1.14,3.81,3.81,0,0,1-1-2.68c0-2.09,1.45-3.59,4.33-3.59h3.27v-.89c0-1.6-.76-2.34-2.73-2.34a3,3,0,0,0-2.73,1.23L558.23,250c1.16-1.38,2.37-1.82,4.46-1.82C566.13,248.17,567.83,249.65,567.83,252.45Zm-5.39,2.83c-1.52,0-2.29.65-2.29,1.8s.72,1.77,2.37,1.77a3,3,0,0,0,2.26-.71,2.43,2.43,0,0,0,.54-1.85v-1Z"/><path class="cls-2" d="M573.74,245.86h-2.66V243.2h2.66Zm-.07,14.94h-2.51V248.32h2.51Z"/><path class="cls-2" d="M586,249.3a4.59,4.59,0,0,1,1.25,3.52v8h-2.51v-7.61c0-1.94-1.11-2.78-2.51-2.78a2.48,2.48,0,0,0-2.58,2.78v7.61h-2.51V248.32h2.46v1.25a4.46,4.46,0,0,1,3.32-1.4A4.35,4.35,0,0,1,586,249.3Z"/><path class="cls-1" d="M67.49,87.48a3,3,0,0,1,0-3.29l7.09-10.63A3.21,3.21,0,0,0,74,69.22a3.1,3.1,0,0,0-4.42.76L61.91,81.42a3,3,0,0,1-2.47,1.32H45.05a3.14,3.14,0,0,0-3.11,2.45,3.1,3.1,0,0,0,3,3.74H59.44a3,3,0,0,1,2.47,1.32l7.62,11.43a3.09,3.09,0,0,0,2.58,1.38,3,3,0,0,0,1.86-.63,3.19,3.19,0,0,0,.63-4.3Z"/><path class="cls-1" d="M76.09,84a3.09,3.09,0,1,0-5.15,3.43l6,9a3.07,3.07,0,0,0,2.57,1.37A3.08,3.08,0,0,0,82.1,93Z"/><path class="cls-1" d="M99.47,94.38V79.12a3.1,3.1,0,0,0-6.19,0V94.38a3.1,3.1,0,0,0,6.19,0"/><path class="cls-1" d="M140.26,135.93V120.61a3.09,3.09,0,0,0-6.18,0v15.32a3.09,3.09,0,0,0,6.18,0"/><path class="cls-1" d="M167.59,97.67h-5.48A1.15,1.15,0,0,1,161,96.52V82.73a3.13,3.13,0,0,0-2.45-3.1,3.08,3.08,0,0,0-3.73,3V96.33a1.34,1.34,0,0,1-2.68,0V82.73a3.13,3.13,0,0,0-2.45-3.1,3.08,3.08,0,0,0-3.73,3V98.39a4.3,4.3,0,0,1-2,3.64l-14.42,9.11a2.78,2.78,0,0,1-3,0L109.72,99.93a2.77,2.77,0,0,1-1.23-2.31V72.49a3.1,3.1,0,0,0-2-2.9L89.68,63.41a3.09,3.09,0,0,0-4.13,2.46,3.14,3.14,0,0,0,2.07,3.37L100.49,74a2.77,2.77,0,0,1,1.81,2.6V96.67a2.78,2.78,0,0,1-1.81,2.61L87.68,104a3.21,3.21,0,0,0-2,3.83,3.11,3.11,0,0,0,3,2.22,3.06,3.06,0,0,0,1.07-.19l14-5.15a2.75,2.75,0,0,1,2.49.29l17.44,11.62a2.78,2.78,0,0,1,1.23,2.31v17a3.15,3.15,0,0,0,2.45,3.11,3.09,3.09,0,0,0,3.73-3V119a2.78,2.78,0,0,1,1.3-2.35l18.07-11.38a9.35,9.35,0,0,1,5-1.44h12.31a3.09,3.09,0,0,0,3-3.73,3.14,3.14,0,0,0-3.11-2.45"/><path class="cls-1" d="M131.38,156.41a3.08,3.08,0,0,0-.85,4.28l4.41,6.63a3.09,3.09,0,0,0,5.15-3.43l-4.42-6.62a3.08,3.08,0,0,0-4.29-.86"/><path class="cls-1" d="M157,219H145.91a3.77,3.77,0,0,1-3.23-1.81L132.77,201a3.84,3.84,0,0,1,0-4l7-11.62a3.21,3.21,0,0,0-.82-4.31,3.09,3.09,0,0,0-4.38,1l-6.42,10.62a2,2,0,0,1-2.92.6l-17.88-13a3.21,3.21,0,0,0-4.36.45,3.09,3.09,0,0,0,.59,4.45l17,12.34a1.82,1.82,0,0,1,0,3l-16.87,12.11a3.19,3.19,0,0,0-1,4.1,3.1,3.1,0,0,0,4.51,1l17.9-12.85a2.22,2.22,0,0,1,3.17.64l6.32,10.3a3.79,3.79,0,0,1-.19,4.25l-11.57,15.6a3.09,3.09,0,0,0,5,3.68l10.89-14.68a1.27,1.27,0,0,1,2.05,1.49l-10.45,14.68a3.18,3.18,0,0,0,.54,4.36,3.05,3.05,0,0,0,1.89.65,3.08,3.08,0,0,0,2.52-1.3l12.67-17.79a3.79,3.79,0,0,1,3.09-1.6h6.07a3.09,3.09,0,0,0,3-3.73A3.14,3.14,0,0,0,157,219"/><path class="cls-1" d="M231.4,116.38a2.47,2.47,0,0,1,1.57-2.3l11.74-4.7a1.31,1.31,0,0,0,.55-2L241.13,102a1.32,1.32,0,0,0-2-.12s-6,5.47-8.93,8a5.25,5.25,0,0,1-3.23,1.54H203.8a4,4,0,0,1-2.72-1c-2.69-2.46-9-8.5-9-8.5a1.35,1.35,0,0,0-1-.39,1.33,1.33,0,0,0-1,.51l-4.14,5.33a1.33,1.33,0,0,0,.55,2l11.14,4.45a2.46,2.46,0,0,1,1.55,2.3v18.15a3.79,3.79,0,0,1-1.41,2.95l-15,12.06a3.17,3.17,0,0,0-.82,4.07,3.08,3.08,0,0,0,4.6.83l11.92-9.6a1.3,1.3,0,0,1,1.84.21,1.37,1.37,0,0,1-.27,1.86l-11.45,9.59a3.21,3.21,0,0,0-.56,4.4,3.1,3.1,0,0,0,4.41.45l18.17-15.23H218a3.14,3.14,0,0,0,3.11-2.45,3.09,3.09,0,0,0-3-3.73H206.91a1.58,1.58,0,0,1-1.57-1.58V119.17a1.57,1.57,0,0,1,1.57-1.57h16.74a1.57,1.57,0,0,1,1.57,1.57V132a3.14,3.14,0,0,0,2.45,3.11,3.09,3.09,0,0,0,3.73-3Z"/><path class="cls-1" d="M253.64,149a3.09,3.09,0,0,0,1.59-.45l14.59-8.76a3.09,3.09,0,1,0-3.18-5.3L252,143.22a3.1,3.1,0,0,0,1.6,5.75"/><path class="cls-1" d="M315.2,146.82,306,152.25a3.24,3.24,0,0,1-3.18.05l-20.24-11a3.25,3.25,0,0,1-1.69-2.85V113.3a3.07,3.07,0,0,0-1.44-2.61l-14.27-9a3.09,3.09,0,0,0-4.56,1.54,3.13,3.13,0,0,0,1.31,3.72L273.15,114a3.25,3.25,0,0,1,1.51,2.74v21.91a3.27,3.27,0,0,1-1.56,2.77L255.57,152.1a3.21,3.21,0,0,1-3.33,0l-9-5.35a3.15,3.15,0,0,0-3.93.51A3.1,3.1,0,0,0,240,152l9.24,5.5a3.23,3.23,0,0,1,1.58,2.78V176.1a3.14,3.14,0,0,1-1.52,2.69l-16.66,10a3.18,3.18,0,0,0-1.27,4.17,3.08,3.08,0,0,0,2.73,1.65,3,3,0,0,0,1.59-.44l14-8.41a1.29,1.29,0,0,1,1.35,2.19l-13.84,8.69a3.18,3.18,0,0,0-1.2,4.16,3.07,3.07,0,0,0,4.36,1.15L258,190.91l14.35,8.66a3,3,0,0,0,1.6.45,3.08,3.08,0,0,0,2.73-1.65,3.2,3.2,0,0,0-1.26-4.17L258.53,184a3.13,3.13,0,0,1-1.51-2.69v-21a3.23,3.23,0,0,1,1.55-2.76l17.67-10.74a3.24,3.24,0,0,1,3.23-.08L303,159.44a3.06,3.06,0,0,0,3-.05l12.26-7.2a3.13,3.13,0,0,0,1.44-3.68,3.09,3.09,0,0,0-4.5-1.69"/><path class="cls-1" d="M302.42,126.72l12.33,10.63a3,3,0,0,0,2,.75,3.08,3.08,0,0,0,2.41-1.15,3.2,3.2,0,0,0-.51-4.39l-9.39-8.09a2.7,2.7,0,0,1-.82-2.78L314,102.93a2.68,2.68,0,0,1,2.57-1.92h20.31a2.67,2.67,0,0,1,2.54,1.85l6.05,18.69a2.66,2.66,0,0,1-.87,2.91l-8,6.39a3.13,3.13,0,0,0-.89,3.85,3.08,3.08,0,0,0,4.69,1l11.15-8.94a3.08,3.08,0,0,0,1-3.36L344,97a3.12,3.12,0,0,0-3-2.14H312.21a3.11,3.11,0,0,0-3,2.23l-7.77,26.46a3.09,3.09,0,0,0,.95,3.21"/><path class="cls-1" d="M391.25,146.64l-15.86-7.21a3.08,3.08,0,0,0-3,.23l-19.17,12.53a2.81,2.81,0,0,1-2.89.12l-10.69-5.85a3.09,3.09,0,1,0-3,5.42l13.79,7.55a3,3,0,0,0,3.18-.12l19.42-12.7a2.82,2.82,0,0,1,2.7-.2l13,5.89a3.1,3.1,0,0,0,4.3-2.15,3.14,3.14,0,0,0-1.82-3.51"/><path class="cls-1" d="M300.17,195.3H294.8a3.09,3.09,0,0,0,0,6.18h5.37a3.09,3.09,0,1,0,0-6.18"/><path class="cls-1" d="M454,153.36l-17-9.61a2.5,2.5,0,0,1-1.27-2.25v-17a3.16,3.16,0,0,0-2.44-3.11,3.1,3.1,0,0,0-3.74,3l0,14.1a1.08,1.08,0,0,1-1.08,1.08h-.93a1.08,1.08,0,0,1-1.08-1.08v-14a3.15,3.15,0,0,0-2.45-3.11,3.1,3.1,0,0,0-3.74,3V141a2,2,0,0,1-1.17,1.79l-8.68,3.8a3.21,3.21,0,0,0-1.82,4,3.1,3.1,0,0,0,4.14,1.75l13.73-6a3,3,0,0,1,2.7.13l21.43,12.09Z"/><path class="cls-2" d="M521.12,193.29l-13.38-8.49a4.7,4.7,0,0,1-2.19-4V161a4.7,4.7,0,0,1,2.19-4l13.51-8.56a3.09,3.09,0,0,0-3.31-5.22l-13.39,8.48a4.73,4.73,0,0,1-4.92.07l-16.28-9.69a4.7,4.7,0,0,1-2.3-4V124.46a3.15,3.15,0,0,0-2.45-3.11,3.1,3.1,0,0,0-3.74,3v14.45a4.69,4.69,0,0,1-2.41,4.1l-20.51,11.46a3.08,3.08,0,0,0-1.58,2.7v28.23a3.08,3.08,0,0,0,1.55,2.68l25.28,14.56a3,3,0,0,0,1.54.41,3.12,3.12,0,0,0,1.64-.47l19.49-12.2a4.71,4.71,0,0,1,5,0l13.06,8.28a3.09,3.09,0,0,0,4.37-1.14,3.18,3.18,0,0,0-1.19-4.16m-23.47-8.9-17.12,10.72a3.67,3.67,0,0,1-3.77.07l-18.39-10.59a3.66,3.66,0,0,1-1.83-3.17V161.05a3.67,3.67,0,0,1,1.88-3.2l18.42-10.28a3.65,3.65,0,0,1,3.66.05l17.08,10.16a3.67,3.67,0,0,1,1.79,3.15v20.35a3.67,3.67,0,0,1-1.72,3.11"/><path class="cls-2" d="M462.94,159.52a3.09,3.09,0,0,0-3.09,3.09V180.2a3.09,3.09,0,1,0,6.18,0V162.61a3.09,3.09,0,0,0-3.09-3.09"/><path class="cls-2" d="M476.29,152.56a3.1,3.1,0,0,0,1.1,4.23l13.64,8a3.09,3.09,0,0,0,3.13-5.33l-13.64-8a3.09,3.09,0,0,0-4.23,1.11"/><path class="cls-2" d="M490.85,177.28l-13.6,8.54a3.1,3.1,0,0,0,3.3,5.24l13.59-8.55a3.09,3.09,0,1,0-3.29-5.23"/><path class="cls-1" d="M19,94.72l3.75-4.56a1.87,1.87,0,0,0,.52-1.3,1.43,1.43,0,1,0-2.86,0H19a2.66,2.66,0,0,1,2.83-2.75,2.61,2.61,0,0,1,2.82,2.74,3,3,0,0,1-.92,2.1l-3,3.74h4V96H19Z"/><path class="cls-1" d="M35.41,90.67H34.05l-4.5-6.86v6.86H28.07V80.92h1.36l4.5,6.86V80.92h1.48Z"/><path class="cls-1" d="M81.7,57.33l-.93.93a2.92,2.92,0,0,0-2.15-.75c-1.15,0-1.76.63-1.76,1.52a1.13,1.13,0,0,0,.35.9,1.9,1.9,0,0,0,1.07.44l1.16.18a3.14,3.14,0,0,1,1.81.72,2.6,2.6,0,0,1,.8,2c0,1.79-1.46,2.86-3.51,2.86a4.43,4.43,0,0,1-3.45-1.29l1-1a3.3,3.3,0,0,0,2.51.95c1.29,0,2-.55,2-1.51a1.24,1.24,0,0,0-.38-1,2,2,0,0,0-1.07-.41L78,61.72a3.26,3.26,0,0,1-1.83-.78,2.4,2.4,0,0,1-.73-1.87c0-1.7,1.23-2.85,3.26-2.85A4,4,0,0,1,81.7,57.33Z"/><path class="cls-1" d="M255.41,95.59l-.93.93a2.88,2.88,0,0,0-2.15-.76c-1.15,0-1.76.63-1.76,1.52a1.14,1.14,0,0,0,.35.91,2,2,0,0,0,1.07.44l1.16.17a3.14,3.14,0,0,1,1.81.73,2.6,2.6,0,0,1,.79,2c0,1.79-1.45,2.86-3.5,2.86a4.43,4.43,0,0,1-3.45-1.29l1-1a3.28,3.28,0,0,0,2.51.94c1.28,0,2-.54,2-1.5a1.28,1.28,0,0,0-.38-1,2,2,0,0,0-1.07-.41l-1.15-.16a3.26,3.26,0,0,1-1.83-.78,2.43,2.43,0,0,1-.73-1.88c0-1.69,1.23-2.84,3.26-2.84A4,4,0,0,1,255.41,95.59Z"/><path class="cls-1" d="M156,67.05c1,1,1,1.93,1,4s0,3-1,4a3.73,3.73,0,0,1-5,0c-.95-1-1-1.93-1-4s0-3,1-4a3.73,3.73,0,0,1,5,0Zm-4,.93c-.48.52-.57,1.11-.57,3s.09,2.51.57,3a2.05,2.05,0,0,0,2.9,0c.5-.51.58-1.1.58-3s-.08-2.53-.58-3a2.08,2.08,0,0,0-2.9,0Z"/><path class="cls-1" d="M80.79,117.9H79.43L74.93,111v6.86H73.45v-9.74H74.8L79.31,115v-6.85h1.48Z"/><path class="cls-1" d="M134.65,152.38H133.3l-4.51-6.86v6.86h-1.47v-9.74h1.35l4.5,6.85v-6.85h1.48Z"/><path class="cls-1" d="M233.87,149.22h-1.35L228,142.36v6.86h-1.48v-9.75h1.36l4.5,6.86v-6.86h1.48Z"/><path class="cls-1" d="M147,170.72c1,1,1,1.93,1,4s0,3-1,4a3.73,3.73,0,0,1-5,0c-1-1-1-1.93-1-4s0-3,1-4a3.7,3.7,0,0,1,5,0Zm-4,.93c-.48.52-.57,1.11-.57,3s.09,2.5.57,3a2.05,2.05,0,0,0,2.9,0c.49-.5.58-1.09.58-3s-.09-2.53-.58-3a2.08,2.08,0,0,0-2.9,0Z"/><path class="cls-1" d="M182.14,159.55c1,.95,1,1.93,1,4s0,3-1,4a3.7,3.7,0,0,1-5,0c-.95-.95-1-1.93-1-4s0-3,1-4a3.7,3.7,0,0,1,5,0Zm-4,.93c-.48.52-.57,1.11-.57,3s.09,2.51.57,3a2.05,2.05,0,0,0,2.9,0c.5-.51.58-1.09.58-3s-.08-2.53-.58-3a2.08,2.08,0,0,0-2.9,0Z"/><path class="cls-1" d="M171.31,217.78c1,1,1,1.93,1,4s0,3-1,4a3.7,3.7,0,0,1-5,0c-1-1-1-1.93-1-4s0-3,1-4a3.73,3.73,0,0,1,5,0Zm-4,.93c-.48.52-.57,1.11-.57,3s.09,2.51.57,3a2.05,2.05,0,0,0,2.9,0c.5-.51.58-1.1.58-3s-.08-2.53-.58-3a2.08,2.08,0,0,0-2.9,0Z"/><path class="cls-1" d="M181.13,226.62h-1.48v-4.25h-4v4.25h-1.48v-9.74h1.48V221h4v-4.16h1.48Z"/><path class="cls-1" d="M183,105.14h-1.35l-4.51-6.86v6.86h-1.48V95.39H177l4.5,6.86V95.39H183Z"/><path class="cls-1" d="M182.75,90.09h-1.47V85.84h-4v4.25h-1.48V80.35h1.48v4.16h4V80.35h1.47Z"/><path class="cls-1" d="M541.45,142.69H540v-4.26h-4v4.26h-1.48V133H536v4.16h4V133h1.48Z"/><path class="cls-1" d="M541.45,207.72H540v-4.25h-4v4.25h-1.48V198H536v4.16h4V198h1.48Z"/><path class="cls-1" d="M125.55,246.63c1,1,1,1.93,1,4s0,3-1,4a3.7,3.7,0,0,1-5,0c-1-1-1-1.93-1-4s0-3,1-4a3.73,3.73,0,0,1,5,0Zm-4,.93c-.48.52-.58,1.11-.58,3s.1,2.51.58,3a2.05,2.05,0,0,0,2.9,0c.49-.51.58-1.1.58-3s-.09-2.53-.58-3a2.08,2.08,0,0,0-2.9,0Z"/><path class="cls-1" d="M430.16,107.73c.95,1,1,1.93,1,4s0,3-1,4a3.7,3.7,0,0,1-5,0c-1-1-1-1.93-1-4s0-3,1-4a3.73,3.73,0,0,1,5,0Zm-4,.93c-.48.52-.58,1.11-.58,3s.1,2.51.58,3a2.05,2.05,0,0,0,2.9,0c.49-.51.57-1.1.57-3s-.08-2.53-.57-3a2.1,2.1,0,0,0-2.9,0Z"/><path class="cls-3" d="M405.11,161.34h-1.35l-4.51-6.86v6.86h-1.47v-9.75h1.35l4.5,6.86v-6.86h1.48Z"/><path class="cls-3" d="M404.91,175.27h-1.48V171h-4v4.25H398v-9.74h1.47v4.16h4v-4.16h1.48Z"/><path class="cls-1" d="M330.5,147.48h-1.36l-4.5-6.86v6.86h-1.48v-9.75h1.36l4.5,6.86v-6.86h1.48Z"/><path class="cls-3" d="M335.8,139.5h2.3v1.3h-2.3v2.3h-1.3v-2.3h-2.3v-1.3h2.3v-2.29h1.3Z"/><path class="cls-1" d="M287,194c.95,1,1,1.93,1,4s0,3-1,4a3.73,3.73,0,0,1-5,0c-1-1-1-1.93-1-4s0-3,1-4a3.7,3.7,0,0,1,5,0Zm-4,.93c-.48.52-.58,1.11-.58,3s.1,2.5.58,3a2,2,0,0,0,2.9,0c.49-.5.57-1.09.57-3s-.08-2.53-.57-3a2.08,2.08,0,0,0-2.9,0Z"/><path class="cls-1" d="M229.18,197.78c.95.95,1,1.93,1,4s0,3-1,4a3.73,3.73,0,0,1-5,0c-1-1-1-1.93-1-4s0-3,1-4a3.7,3.7,0,0,1,5,0Zm-4,.93c-.48.52-.58,1.11-.58,3s.1,2.5.58,3a2.05,2.05,0,0,0,2.9,0c.49-.51.57-1.09.57-3s-.08-2.54-.57-3a2.08,2.08,0,0,0-2.9,0Z"/><path class="cls-1" d="M479.22,109.12h-1.5a1.93,1.93,0,0,0-2-1.67,1.88,1.88,0,0,0-1.44.59c-.49.52-.59,1.11-.59,3s.1,2.51.59,3a1.88,1.88,0,0,0,1.44.59,1.93,1.93,0,0,0,2-1.67h1.5a3.58,3.58,0,0,1-6,2c-1-1-1-1.93-1-4s0-3,1-4a3.4,3.4,0,0,1,2.52-1A3.36,3.36,0,0,1,479.22,109.12Z"/><path class="cls-1" d="M482.68,116H481.2V106.2h1.48Z"/><path class="cls-1" d="M531.62,134.45c1,1,1,1.93,1,4s0,3-1,4a3.73,3.73,0,0,1-5,0c-1-1-1-1.93-1-4s0-3,1-4a3.73,3.73,0,0,1,5,0Zm-4,.93c-.48.52-.58,1.11-.58,3s.1,2.5.58,3a2,2,0,0,0,2.9,0c.49-.5.57-1.09.57-3s-.08-2.53-.57-3a2.08,2.08,0,0,0-2.9,0Z"/><path class="cls-1" d="M531.62,199.16c1,1,1,1.93,1,4s0,3-1,4a3.7,3.7,0,0,1-5,0c-1-1-1-1.93-1-4s0-3,1-4a3.73,3.73,0,0,1,5,0Zm-4,.93c-.48.52-.58,1.11-.58,3s.1,2.51.58,3a2.05,2.05,0,0,0,2.9,0c.49-.51.57-1.1.57-3s-.08-2.53-.57-3a2.08,2.08,0,0,0-2.9,0Z"/><polyline class="cls-4" points="539.96 216.04 539.96 228.98 432.91 228.98 432.91 215.76"/></svg>
